<svg width="34" height="30" viewBox="0 0 34 30" fill="none" xmlns="http://www.w3.org/2000/svg">
<path d="M32 16.728C33.1046 16.728 34 15.8326 34 14.728C34 13.6235 33.1046 12.728 32 12.728V16.728ZM0.585785 13.3138C-0.195263 14.0949 -0.195263 15.3612 0.585785 16.1422L13.3137 28.8702C14.0948 29.6512 15.3611 29.6512 16.1421 28.8702C16.9232 28.0891 16.9232 26.8228 16.1421 26.0417L4.82842 14.728L16.1421 3.41432C16.9232 2.63327 16.9232 1.36694 16.1421 0.585892C15.3611 -0.195157 14.0948 -0.195157 13.3137 0.585892L0.585785 13.3138ZM32 12.728L2 12.728V16.728L32 16.728V12.728Z" fill="white"/>
</svg>
