<svg width="17" height="17" viewBox="0 0 17 17" fill="none" xmlns="http://www.w3.org/2000/svg">
<path d="M8.02294 0.346721C8.1731 -0.115421 8.8269 -0.115421 8.97706 0.346721L10.6398 5.464C10.7069 5.67067 10.8995 5.8106 11.1168 5.8106H16.4975C16.9834 5.8106 17.1854 6.43241 16.7923 6.71803L12.4393 9.88068C12.2635 10.0084 12.1899 10.2348 12.2571 10.4415L13.9198 15.5588C14.0699 16.0209 13.541 16.4052 13.1479 16.1196L8.79484 12.9569C8.61903 12.8292 8.38097 12.8292 8.20516 12.9569L3.85214 16.1196C3.45902 16.4052 2.93008 16.0209 3.08024 15.5588L4.74294 10.4415C4.8101 10.2348 4.73653 10.0084 4.56072 9.88068L0.207708 6.71803C-0.185413 6.43241 0.0166249 5.8106 0.50255 5.8106H5.88317C6.10048 5.8106 6.29308 5.67067 6.36023 5.464L8.02294 0.346721Z" fill="#FFB649"/>
</svg>
